# xmcd
#
# Track frame offsets:
#	150
#	20120
#	38202
#	54965
#	71415
#	86447
#	102550
#	121967
#	136047
#	151092
#	169775
#	185512
#
# Disc length: 2692
#
# Revision: 2
# Processed by: cddbd v1.5.1PL0 Copyright (c) Steve Scherf et al.
# Submitted via: dBpowerAMP V4.0
# Normalized: r0:TSWAP
#
DISCID=960a820c
DTITLE=Various Artist - My Country Valentine
DYEAR=1900
DGENRE=Country
TTITLE0=The Judds - Young Love (Strong Love)
TTITLE1=Vince Gill - I Never Knew Lonely
TTITLE2=Tanya Tucker - I Won't Take Less Than Your Love (with Paul Davis)
TTITLE3=Alabama - Feel So Right
TTITLE4=Pam Tillis - Maybe It Was Memphis
TTITLE5=Randy Travis - Forever And Ever, Amen
TTITLE6=Restless Heart - I'll Still Be Loving You
TTITLE7=Dolly Parton - I Will Always Love You
TTITLE8=Don Williams - Just As Long As I Have You
TTITLE9=Little Texas - My Love
TTITLE10=Lorrie Morgan - He Talks To Me
TTITLE11=Keith Whitley - When You Say Nothing At All
EXTD=
EXTT0=
EXTT1=
EXTT2=
EXTT3=
EXTT4=
EXTT5=
EXTT6=
EXTT7=
EXTT8=
EXTT9=
EXTT10=
EXTT11=
PLAYORDER=
